<svg xmlns="http://www.w3.org/2000/svg" width="103" height="52" viewBox="0 0 103 52">
  <g id="Grupo_35" data-name="Grupo 35" transform="translate(-1391.323 -35.555)">
    <g id="Grupo_34" data-name="Grupo 34" transform="translate(1391.257 35.628)">
      <rect id="Rect치ngulo_8" data-name="Rect치ngulo 8" width="51" height="52" transform="translate(0.067 -0.073)" fill="#7f4599"/>
      <g id="apple-icon" transform="translate(12.061 11.265)">
        <path id="Trazado_39" data-name="Trazado 39" d="M20.057,54.558l-1.912.434a.755.755,0,0,0,.33,1.473l1.912-.434a.755.755,0,0,0-.33-1.473Z" transform="translate(-17.167 -42.781)" fill="#fff"/>
        <path id="Trazado_40" data-name="Trazado 40" d="M41.5,25.536a.748.748,0,1,0,1.467-.3L42.6,23.354a.748.748,0,1,0-1.468.3Z" transform="translate(-34.563 -19.31)" fill="#fff"/>
        <path id="Trazado_41" data-name="Trazado 41" d="M20.726,33.581l-3.505-2.2a.746.746,0,0,0-1.031.241.759.759,0,0,0,.238,1.046l3.505,2.192a.746.746,0,0,0,1.031-.241.759.759,0,0,0-.238-1.036Z" transform="translate(-16.074 -25.595)" fill="#fff"/>
        <path id="Trazado_42" data-name="Trazado 42" d="M53,42.014c-1.193-.672-3.484-.411-5.5-.209-.772.081-1.5.157-1.98.157a18.027,18.027,0,0,1-1.993-.2c-1.857-.262-3.78-.523-4.873.039C34.8,43.741,34.47,47.7,34.47,52.289A11.767,11.767,0,0,0,41.661,63.3a2.195,2.195,0,0,0,.816.149,5.517,5.517,0,0,0,1.878-.463,4.622,4.622,0,0,1,1.415-.379c.2,0,.4,0,.586-.016a4.933,4.933,0,0,1,1.473.215,3.569,3.569,0,0,0,2.825-.123,11.379,11.379,0,0,0,3.989-3.8.759.759,0,0,0-.225-1.046.746.746,0,0,0-1.046.225,9.875,9.875,0,0,1-3.458,3.3,2.266,2.266,0,0,1-1.737-.024,6.3,6.3,0,0,0-1.917-.262c-.165,0-.335.013-.5.013a5.611,5.611,0,0,0-1.936.476,2.829,2.829,0,0,1-1.627.322,10.27,10.27,0,0,1-6.241-9.6c0-4.227.246-7.586,3.346-9.156.683-.343,2.6-.084,4,.1a18.648,18.648,0,0,0,2.192.22c.56,0,1.29-.076,2.137-.165,1.53-.16,3.843-.4,4.625.031,2.789,1.549,2.786,4.612,2.781,8.489v.463a7.25,7.25,0,0,1-.026.759.749.749,0,0,0,1.494.1c.018-.285.029-.575.029-.863v-.442C56.564,47.8,56.569,43.992,53,42.014Z" transform="translate(-29.658 -33.125)" fill="#fff"/>
        <path id="Trazado_43" data-name="Trazado 43" d="M67.655,17.2a.748.748,0,0,0,.644.369h.076a.74.74,0,0,0,.126,0,6.214,6.214,0,0,0,4.447-2.616,6.57,6.57,0,0,0,.685-4.8.746.746,0,0,0-.874-.541,6.564,6.564,0,0,0-4.675,2.959,5.122,5.122,0,0,0-.557,1.488l-.97-1.679a.746.746,0,0,0-1.025-.262.759.759,0,0,0-.262,1.046Zm1.732-3.908a4.665,4.665,0,0,1,2.914-2.04,4.685,4.685,0,0,1-.617,2.877,4.4,4.4,0,0,1-2.736,1.794A4.185,4.185,0,0,1,69.386,13.288Z" transform="translate(-52.319 -9.589)" fill="#fff"/>
        <ellipse id="Elipse_1" data-name="Elipse 1" cx="0.751" cy="0.756" rx="0.751" ry="0.756" transform="translate(24.722 22.363)" fill="#fff"/>
        <path id="Trazado_44" data-name="Trazado 44" d="M66.725,69.635a3.662,3.662,0,0,1-1.188.178,2.419,2.419,0,0,1-.984-.149,2.033,2.033,0,0,1-.575-.411,1.386,1.386,0,0,0-.28-.225.667.667,0,0,0-.335-.076H61.933a.523.523,0,0,0-.361.149.416.416,0,0,0-.139.356,2.132,2.132,0,0,0,.523,1.235,3.55,3.55,0,0,0,1.413.984,5.6,5.6,0,0,0,2.163.385,5.287,5.287,0,0,0,2.187-.416,3.526,3.526,0,0,0,1.447-1.109,2.409,2.409,0,0,0,.5-1.452,2.671,2.671,0,0,0-.706-1.91,4.344,4.344,0,0,0-2.3-1.086q-1.263-.28-1.745-.4a1.831,1.831,0,0,1-.678-.28.536.536,0,0,1-.2-.439.612.612,0,0,1,.4-.581,2.391,2.391,0,0,1,1.012-.186,2.519,2.519,0,0,1,.863.112,1.831,1.831,0,0,1,.523.3,1.352,1.352,0,0,0,.28.2.785.785,0,0,0,.353.065H68.9a.523.523,0,0,0,.361-.149.419.419,0,0,0,.139-.356,1.959,1.959,0,0,0-.523-1.18,3.4,3.4,0,0,0-1.373-.9,5.676,5.676,0,0,0-2.035-.337,4.525,4.525,0,0,0-2.061.429,3.346,3.346,0,0,0-1.337,1.122,2.579,2.579,0,0,0-.466,1.46,2.877,2.877,0,0,0,.623,1.928,4.032,4.032,0,0,0,2.192,1.088l.725.149q.947.207,1.337.319a1.816,1.816,0,0,1,.575.262.455.455,0,0,1,.186.385Q67.246,69.457,66.725,69.635Z" transform="translate(-49.566 -48.255)" fill="#fff"/>
      </g>
    </g>
    <g id="Grupo_33" data-name="Grupo 33" transform="translate(1442.397 35.628)">
      <rect id="Rect치ngulo_10" data-name="Rect치ngulo 10" width="52" height="52" transform="translate(-0.073 -0.073)" fill="#f9af19"/>
      <g id="pig-icon" transform="translate(9.328 13.846)" opacity="0.984">
        <path id="Trazado_33" data-name="Trazado 33" d="M11.225,55.538a7.5,7.5,0,0,1-4.3-6.76v-1.22a7.427,7.427,0,0,1,.514-2.74.486.486,0,1,0-.9-.357,8.4,8.4,0,0,0-.586,3.1v.7A4.487,4.487,0,0,1,1.943,43.8a.487.487,0,1,0-.973,0,5.457,5.457,0,0,0,5,5.432,8.475,8.475,0,0,0,4.839,7.191.487.487,0,0,0,.413-.881Z" transform="translate(-0.97 -37.329)" fill="#fff"/>
        <path id="Trazado_34" data-name="Trazado 34" d="M28.4,30.05a7.461,7.461,0,0,1,5.65-2.586h7.219a.487.487,0,0,0,0-.973H34.049a8.434,8.434,0,0,0-6.392,2.925.487.487,0,1,0,.737.637Z" transform="translate(-20.715 -24.825)" fill="#fff"/>
        <path id="Trazado_35" data-name="Trazado 35" d="M70.045,27.858H67.68a8.36,8.36,0,0,0-2.424-3.875L66.627,21a.485.485,0,0,0-.2-.624,3.066,3.066,0,0,0-2.386-.229A3.43,3.43,0,0,0,62.13,22.2l-.056-.021a.485.485,0,1,0-.28.919,7.427,7.427,0,0,1,5.262,7.135v1.22a7.4,7.4,0,0,1-.724,3.208A7.476,7.476,0,0,1,65.24,36.33h0a7.463,7.463,0,0,1-5.65,2.586H52.363a.487.487,0,1,0,0,.973H52.6v3.544H49.563V39.407a.487.487,0,1,0-.973,0v4.517a.485.485,0,0,0,.485.478h4.006a.485.485,0,0,0,.493-.478V39.892h2.311v4.032a.485.485,0,0,0,.485.478h4.006a.485.485,0,0,0,.485-.485V39.792a8.434,8.434,0,0,0,5.106-2.825h0A8.447,8.447,0,0,0,67.2,35.082c.026-.054.049-.11.074-.167h2.769a.485.485,0,0,0,.48-.483V28.346A.485.485,0,0,0,70.045,27.858Zm-5.683-6.79a1.9,1.9,0,0,1,1.166,0l-1.053,2.275a8.448,8.448,0,0,0-1.438-.812A2.512,2.512,0,0,1,64.361,21.067ZM59.893,43.436H56.857V39.892h3.036Zm9.667-9.5H67.646a8.393,8.393,0,0,0,.375-2.489v-1.21a8.587,8.587,0,0,0-.116-1.406H69.56Z" transform="translate(-36.36 -20.005)" fill="#fff"/>
        <path id="Trazado_36" data-name="Trazado 36" d="M102.116,47.434a1.22,1.22,0,0,0,0-1.728,1.258,1.258,0,0,0-1.728,0,1.222,1.222,0,1,0,1.728,1.728Z" transform="translate(-74.575 -38.85)" fill="#fff"/>
        <path id="Trazado_37" data-name="Trazado 37" d="M51.05,39.588a.485.485,0,0,0,.485.485h10.18a.487.487,0,1,0,0-.973H51.538a.485.485,0,0,0-.488.488Z" transform="translate(-38.188 -34.196)" fill="#fff"/>
        <path id="Trazado_38" data-name="Trazado 38" d="M87.149,27.815a.663.663,0,0,0,.467-1.13.683.683,0,0,0-.935,0,.663.663,0,0,0,.467,1.13Z" transform="translate(-64.526 -24.832)" fill="#fff"/>
      </g>
    </g>
  </g>
</svg>
