<?xml version="1.0" encoding="utf-8"?>
<!-- Generator: Adobe Illustrator 24.1.0, SVG Export Plug-In . SVG Version: 6.00 Build 0)  -->
<svg version="1.1" id="Capa_1" xmlns="http://www.w3.org/2000/svg" xmlns:xlink="http://www.w3.org/1999/xlink" x="0px" y="0px"
	 viewBox="0 0 255 201" style="enable-background:new 0 0 255 201;" xml:space="preserve">
<style type="text/css">
	.st0{opacity:0.4;}
	.st1{fill:#FFFFFF;}
</style>
<g id="XMLID_64_" class="st0">
	<g id="XMLID_86_">
		<g id="XMLID_87_">
			<g id="XMLID_116_">
				<path id="XMLID_125_" class="st1" d="M29.6,93.3c-1.2-1.4-1.8-3.3-1.8-5.6c0-1.5,0.5-2.9,1.4-4.2c0.9-1.3,2.2-2.4,3.9-3.3
					c1.7-0.8,3.7-1.2,5.9-1.2c2.2,0,4.2,0.3,5.9,1c1.7,0.6,3.1,1.5,4,2.6c1,1.1,1.5,2.2,1.5,3.4c0,0.4-0.1,0.7-0.4,1
					c-0.3,0.3-0.7,0.4-1.1,0.4h-4.2c-0.4,0-0.8-0.1-1-0.2c-0.3-0.1-0.5-0.3-0.8-0.6c-0.4-0.4-0.9-0.7-1.5-0.9
					c-0.6-0.2-1.4-0.3-2.5-0.3c-1.2,0-2.2,0.2-3,0.5c-0.8,0.4-1.2,0.9-1.2,1.7c0,0.5,0.2,1,0.6,1.3c0.4,0.3,1,0.6,2,0.8
					c0.9,0.2,2.6,0.6,5.1,1.2c3.1,0.6,5.3,1.7,6.7,3.1c1.4,1.4,2.1,3.3,2.1,5.5c0,1.5-0.5,2.9-1.5,4.2c-1,1.3-2.4,2.4-4.2,3.2
					c-1.8,0.8-3.9,1.2-6.4,1.2c-2.4,0-4.5-0.4-6.3-1.1c-1.8-0.7-3.2-1.7-4.1-2.8c-1-1.2-1.5-2.3-1.5-3.6c0-0.4,0.1-0.7,0.4-1
					c0.3-0.3,0.7-0.4,1.1-0.4h4.2c0.4,0,0.7,0.1,1,0.2c0.3,0.1,0.5,0.4,0.8,0.7c0.5,0.5,1.1,0.9,1.7,1.2c0.6,0.3,1.6,0.4,2.9,0.4
					c1.3,0,2.5-0.2,3.5-0.5c1-0.3,1.5-0.9,1.5-1.6c0-0.5-0.2-0.8-0.5-1.1c-0.4-0.3-0.9-0.5-1.7-0.7c-0.8-0.2-2.1-0.5-3.9-0.9
					l-2.1-0.4C32.9,95.7,30.8,94.7,29.6,93.3z"/>
				<path id="XMLID_122_" class="st1" d="M77.5,81.9c2.2,2,3.3,4.7,3.3,8.4v15.9c0,0.4-0.1,0.7-0.4,1c-0.3,0.3-0.6,0.4-1,0.4h-4.1
					c-0.4,0-0.7-0.1-1-0.4c-0.3-0.3-0.4-0.6-0.4-1v-1.8c-0.8,1.2-2,2.1-3.4,2.8c-1.5,0.7-3.2,1-5.3,1c-3,0-5.4-0.8-7.2-2.4
					c-1.8-1.6-2.7-3.6-2.7-6.1c0-2.4,0.9-4.3,2.6-5.8c1.7-1.4,4.1-2.4,7.2-3l8.8-1.5c0-1.4-0.5-2.4-1.4-3.1c-0.9-0.7-2.2-1-3.7-1
					c-0.8,0-1.5,0.1-2,0.4c-0.5,0.2-1,0.6-1.5,1.1c-0.5,0.5-1.1,0.8-1.8,0.8h-5c-0.4,0-0.7-0.1-0.9-0.4C57.1,87,57,86.8,57,86.4
					c0.2-1.1,0.8-2.3,1.7-3.4c0.9-1.2,2.2-2.1,3.9-2.9c1.7-0.8,3.7-1.2,6-1.2C72.3,79,75.3,79.9,77.5,81.9z M73.7,95.1l-7.4,1.3
					c-1.4,0.3-2.5,0.6-3.2,1.1c-0.7,0.5-1,1.1-1,2c0,0.7,0.4,1.3,1.1,1.7c0.7,0.4,1.7,0.6,2.8,0.6c1.6,0,3-0.3,4.1-0.9
					c1.2-0.6,2-1.3,2.6-2.2c0.6-0.9,0.9-1.9,0.9-3V95.1z"/>
				<path id="XMLID_120_" class="st1" d="M113.9,107.2c-0.3,0.3-0.6,0.4-1,0.4h-4.1c-0.4,0-0.7-0.1-1-0.4c-0.3-0.3-0.4-0.6-0.4-1
					V92.4c0-2.2-0.5-4-1.6-5.3c-1-1.3-2.6-1.9-4.6-1.9c-1.9,0-3.4,0.7-4.5,2c-1.1,1.3-1.7,3-1.7,5.2v13.8c0,0.4-0.1,0.7-0.4,1
					c-0.3,0.3-0.6,0.4-1,0.4h-4.1c-0.4,0-0.7-0.1-1-0.4c-0.3-0.3-0.4-0.6-0.4-1V81c0-0.4,0.1-0.7,0.4-1c0.3-0.3,0.6-0.4,1-0.4h4.1
					c0.4,0,0.7,0.1,1,0.4c0.3,0.3,0.4,0.6,0.4,1v1.2c2.2-2.2,4.8-3.2,7.8-3.2c4.1,0,7,1.2,8.9,3.5c1.8,2.3,2.7,5.4,2.7,9.2v14.6
					C114.4,106.6,114.2,106.9,113.9,107.2z"/>
				<path id="XMLID_117_" class="st1" d="M147.7,93.6c0,0.9,0,1.8-0.1,2.7c-0.2,2.2-0.8,4.2-2,6c-1.2,1.8-2.7,3.2-4.7,4.3
					s-4.3,1.6-6.9,1.6c-2.6,0-4.8-0.5-6.9-1.6c-2-1-3.6-2.5-4.7-4.3c-1.2-1.8-1.8-3.8-2-6c0-0.4-0.1-1.3-0.1-2.7
					c0-1.4,0-2.3,0.1-2.8c0.2-2.2,0.8-4.3,2-6.1c1.2-1.8,2.7-3.2,4.7-4.3c2-1,4.3-1.6,6.9-1.6c2.6,0,4.8,0.5,6.9,1.6
					c2,1,3.6,2.5,4.7,4.3c1.2,1.8,1.8,3.8,2,6.1C147.6,91.7,147.7,92.7,147.7,93.6z M129.6,86.8c-1.2,0.9-1.9,2.3-2.1,4.4
					c0,0.4-0.1,1.2-0.1,2.4c0,1.3,0,2.1,0.1,2.4c0.2,2.1,0.9,3.5,2.1,4.4c1.2,0.9,2.7,1.3,4.4,1.3c1.7,0,3.2-0.4,4.4-1.3
					c1.2-0.9,1.9-2.3,2.1-4.4c0.1-0.7,0.1-1.5,0.1-2.4c0-0.9,0-1.7-0.1-2.4c-0.2-2.1-0.9-3.5-2.1-4.4c-1.2-0.9-2.7-1.3-4.4-1.3
					C132.2,85.5,130.8,85.9,129.6,86.8z"/>
			</g>
			<g id="XMLID_104_">
				<path id="XMLID_114_" class="st1" d="M78.6,149.2c-0.3,0.3-0.6,0.4-1,0.4h-3.9c-0.4,0-0.7-0.1-1-0.4c-0.3-0.3-0.4-0.6-0.4-1
					v-33.7c0-0.4,0.1-0.7,0.4-1c0.3-0.3,0.6-0.4,1-0.4h3.9c0.4,0,0.7,0.1,1,0.4c0.3,0.3,0.4,0.6,0.4,1v33.7
					C79.1,148.6,78.9,148.9,78.6,149.2z"/>
				<path id="XMLID_112_" class="st1" d="M86.3,123.3c0.3-0.3,0.6-0.4,1-0.4h3.9c0.4,0,0.7,0.1,1,0.4c0.3,0.3,0.4,0.6,0.4,1v13.1
					c0,2.2,0.5,3.8,1.4,5c0.9,1.2,2.3,1.8,4.2,1.8c1.8,0,3.2-0.6,4.1-1.8c1-1.2,1.5-2.9,1.5-5v-13.1c0-0.4,0.1-0.7,0.4-1
					c0.3-0.3,0.6-0.4,1-0.4h3.9c0.4,0,0.7,0.1,1,0.4c0.3,0.3,0.4,0.6,0.4,1v23.9c0,0.4-0.1,0.7-0.4,1c-0.3,0.3-0.6,0.4-1,0.4h-3.9
					c-0.4,0-0.7-0.1-1-0.4c-0.3-0.3-0.4-0.6-0.4-1v-1.2c-2,2.1-4.4,3.1-7.1,3.1c-3.9,0-6.6-1.1-8.3-3.3s-2.5-5.1-2.5-8.7v-13.8
					C85.9,123.9,86,123.6,86.3,123.3z"/>
				<path id="XMLID_110_" class="st1" d="M125,142.5c1.1,1,2.5,1.5,4.1,1.5c1.5,0,2.7-0.2,3.4-0.7c0.8-0.4,1.5-1.1,2.1-2.1
					c0.3-0.4,0.5-0.8,0.8-1c0.3-0.2,0.6-0.4,0.9-0.4h3.9c0.4,0,0.7,0.1,1,0.4c0.3,0.3,0.4,0.6,0.4,1c-0.1,1.1-0.6,2.4-1.5,3.8
					c-0.9,1.4-2.3,2.6-4.2,3.6c-1.9,1-4.2,1.5-6.9,1.5c-2.4,0-4.6-0.5-6.4-1.6c-1.9-1.1-3.3-2.5-4.4-4.3c-1.1-1.8-1.7-3.8-1.9-5.9
					c0-0.4-0.1-1.1-0.1-2.1c0-1,0-1.7,0.1-2.1c0.2-2.1,0.8-4.1,1.9-5.9c1.1-1.8,2.6-3.2,4.4-4.3c1.9-1.1,4-1.6,6.5-1.6
					c2.7,0,5,0.5,6.9,1.5c1.9,1,3.3,2.2,4.2,3.6c0.9,1.4,1.4,2.7,1.5,3.8c0,0.4-0.1,0.7-0.4,1c-0.3,0.3-0.6,0.4-1,0.4h-3.9
					c-0.3,0-0.6-0.1-0.9-0.4c-0.3-0.2-0.5-0.6-0.8-1c-0.7-1-1.4-1.7-2.1-2.1c-0.8-0.4-1.9-0.7-3.4-0.7c-1.6,0-2.9,0.5-4.1,1.5
					c-1.1,1-1.8,2.5-2,4.4c0,0.3-0.1,0.9-0.1,1.8c0,0.9,0,1.5,0.1,1.8C123.1,140.1,123.8,141.5,125,142.5z"/>
				<path id="XMLID_107_" class="st1" d="M166.6,125.2c2.1,1.8,3.1,4.5,3.1,8v15.1c0,0.4-0.1,0.7-0.4,1c-0.3,0.3-0.6,0.4-1,0.4h-3.9
					c-0.4,0-0.7-0.1-1-0.4c-0.3-0.3-0.4-0.6-0.4-1v-1.7c-0.8,1.1-1.9,2-3.3,2.6c-1.4,0.6-3.1,1-5,1c-2.9,0-5.2-0.7-6.8-2.2
					c-1.7-1.5-2.5-3.4-2.5-5.8c0-2.3,0.8-4.1,2.4-5.5c1.6-1.4,3.9-2.3,6.8-2.8l8.4-1.4c0-1.3-0.4-2.3-1.3-2.9c-0.9-0.6-2-1-3.5-1
					c-0.8,0-1.4,0.1-1.9,0.3c-0.5,0.2-1,0.6-1.5,1c-0.5,0.5-1.1,0.7-1.7,0.7h-4.8c-0.3,0-0.6-0.1-0.8-0.3c-0.2-0.2-0.3-0.5-0.3-0.8
					c0.2-1.1,0.7-2.1,1.6-3.2c0.9-1.1,2.1-2,3.7-2.7c1.6-0.7,3.5-1.1,5.7-1.1C161.7,122.4,164.5,123.3,166.6,125.2z M163,137.7
					l-7,1.2c-1.4,0.2-2.4,0.6-3,1.1c-0.6,0.5-1,1.1-1,1.9c0,0.7,0.4,1.2,1.1,1.6c0.7,0.4,1.6,0.5,2.6,0.5c1.5,0,2.8-0.3,3.9-0.8
					c1.1-0.5,1.9-1.3,2.5-2.1c0.6-0.9,0.8-1.8,0.8-2.8V137.7z"/>
				<path id="XMLID_105_" class="st1" d="M177.2,136c-1.1-1.3-1.7-3.1-1.7-5.3c0-1.4,0.4-2.7,1.3-4c0.9-1.3,2.1-2.3,3.7-3.1
					c1.6-0.8,3.5-1.2,5.6-1.2c2.1,0,4,0.3,5.6,0.9c1.6,0.6,2.9,1.4,3.8,2.5c0.9,1,1.4,2.1,1.5,3.2c0,0.4-0.1,0.7-0.4,1
					c-0.3,0.3-0.6,0.4-1,0.4h-4c-0.4,0-0.7-0.1-1-0.2c-0.2-0.1-0.5-0.3-0.8-0.5c-0.4-0.3-0.9-0.6-1.4-0.8c-0.5-0.2-1.3-0.3-2.4-0.3
					c-1.1,0-2.1,0.2-2.8,0.5c-0.7,0.3-1.1,0.9-1.1,1.6c0,0.5,0.2,0.9,0.5,1.2c0.4,0.3,1,0.5,1.9,0.8c0.9,0.2,2.5,0.6,4.8,1.1
					c2.9,0.6,5.1,1.6,6.4,3c1.3,1.4,2,3.1,2,5.2c0,1.4-0.5,2.7-1.4,4c-0.9,1.3-2.3,2.3-4,3c-1.7,0.8-3.7,1.2-6,1.2
					c-2.3,0-4.3-0.4-6-1.1c-1.7-0.7-3-1.6-3.9-2.7c-0.9-1.1-1.4-2.2-1.5-3.4c0-0.4,0.1-0.7,0.4-1c0.3-0.3,0.6-0.4,1-0.4h4
					c0.4,0,0.7,0.1,0.9,0.2c0.2,0.1,0.5,0.3,0.8,0.6c0.5,0.5,1,0.9,1.6,1.1c0.6,0.3,1.5,0.4,2.7,0.4c1.2,0,2.3-0.2,3.3-0.5
					c1-0.3,1.4-0.8,1.4-1.5c0-0.4-0.2-0.8-0.5-1.1c-0.3-0.3-0.9-0.5-1.6-0.7c-0.7-0.2-2-0.5-3.7-0.9l-2-0.4
					C180.4,138.3,178.4,137.3,177.2,136z"/>
			</g>
			<g id="XMLID_97_">
				<path id="XMLID_102_" class="st1" d="M165.1,177.1c0.2,0.2,0.3,0.5,0.3,0.8v4c0,0.3-0.1,0.6-0.3,0.8c-0.2,0.2-0.5,0.3-0.8,0.3
					h-3.8c-0.3,0-0.6-0.1-0.8-0.3c-0.2-0.2-0.3-0.5-0.3-0.8v-4c0-0.3,0.1-0.6,0.3-0.8c0.2-0.2,0.5-0.3,0.8-0.3h3.8
					C164.6,176.8,164.9,176.9,165.1,177.1z"/>
				<path id="XMLID_100_" class="st1" d="M174.9,177.4c0.9,0.8,2,1.2,3.2,1.2c1.2,0,2.1-0.2,2.7-0.5c0.6-0.3,1.1-0.9,1.7-1.7
					c0.2-0.3,0.4-0.6,0.6-0.8c0.2-0.2,0.4-0.3,0.7-0.3h3.1c0.3,0,0.6,0.1,0.8,0.3c0.2,0.2,0.3,0.5,0.3,0.8c-0.1,0.9-0.4,1.9-1.2,3
					c-0.7,1.1-1.8,2.1-3.3,2.8c-1.5,0.8-3.3,1.2-5.4,1.2c-1.9,0-3.6-0.4-5.1-1.3c-1.5-0.8-2.6-2-3.5-3.4c-0.9-1.4-1.4-3-1.5-4.6
					c0-0.3,0-0.9,0-1.6c0-0.8,0-1.3,0-1.7c0.1-1.7,0.6-3.2,1.5-4.6c0.8-1.4,2-2.5,3.5-3.4c1.5-0.8,3.2-1.3,5.1-1.3
					c2.1,0,3.9,0.4,5.4,1.2c1.5,0.8,2.6,1.7,3.3,2.8c0.7,1.1,1.1,2.1,1.2,3c0,0.3-0.1,0.6-0.3,0.8c-0.2,0.2-0.5,0.3-0.8,0.3h-3.1
					c-0.3,0-0.5-0.1-0.7-0.3c-0.2-0.2-0.4-0.5-0.6-0.8c-0.5-0.8-1.1-1.3-1.7-1.7c-0.6-0.3-1.5-0.5-2.7-0.5c-1.2,0-2.3,0.4-3.2,1.2
					c-0.9,0.8-1.4,1.9-1.6,3.5c0,0.3,0,0.7,0,1.4c0,0.7,0,1.1,0,1.4C173.5,175.4,174,176.6,174.9,177.4z"/>
				<path id="XMLID_98_" class="st1" d="M197.3,182.6c-0.2,0.2-0.5,0.3-0.8,0.3h-3.1c-0.3,0-0.6-0.1-0.8-0.3
					c-0.2-0.2-0.3-0.5-0.3-0.8v-26.5c0-0.3,0.1-0.6,0.3-0.8c0.2-0.2,0.5-0.3,0.8-0.3h3.1c0.3,0,0.6,0.1,0.8,0.3
					c0.2,0.2,0.3,0.5,0.3,0.8v26.5C197.6,182.2,197.5,182.4,197.3,182.6z"/>
			</g>
			<g id="XMLID_88_">
				<path id="XMLID_94_" class="st1" d="M40.3,116.2c0-0.3,0.1-0.5,0.3-0.7c0.2-0.2,0.4-0.3,0.7-0.3H44c0.3,0,0.5,0.1,0.7,0.3
					c0.2,0.2,0.3,0.4,0.3,0.7v23c0,0.3-0.1,0.5-0.3,0.7c-0.2,0.2-0.4,0.3-0.7,0.3h-2.7c-0.3,0-0.5-0.1-0.7-0.3
					c-0.2-0.2-0.3-0.4-0.3-0.7v-0.8c-0.5,0.6-1.2,1.1-2,1.5c-0.9,0.4-2,0.6-3.3,0.6c-1.5,0-2.9-0.4-4-1.1c-1.2-0.8-2.1-1.8-2.7-3
					c-0.7-1.3-1-2.6-1.1-4.1l0-1.2l0-1.2c0.1-1.5,0.4-2.8,1.1-4.1c0.7-1.2,1.6-2.3,2.7-3c1.2-0.8,2.5-1.1,4-1.1
					c1.3,0,2.4,0.2,3.2,0.6c0.9,0.4,1.6,0.9,2.1,1.5V116.2z M32.9,135c0.8,0.9,1.8,1.3,3.2,1.3c1.2,0,2.1-0.3,2.9-1
					c0.8-0.7,1.2-1.7,1.3-2.9c0-0.5,0.1-0.9,0.1-1.3c0-0.4,0-0.9-0.1-1.3c-0.1-1.2-0.6-2.1-1.3-2.9c-0.8-0.7-1.7-1.1-2.9-1.1
					c-1.2,0-2.2,0.4-2.9,1.1c-0.8,0.7-1.2,1.8-1.4,3.2c0,0.2,0,0.6,0,1C31.8,132.8,32.2,134.1,32.9,135z"/>
				<path id="XMLID_91_" class="st1" d="M61,122.7c1.3,0.8,2.3,1.9,3,3.2c0.7,1.4,1.1,2.8,1.1,4.5v1.6c0,0.3-0.1,0.5-0.3,0.7
					c-0.2,0.2-0.4,0.3-0.7,0.3H52.5c0,1,0.4,1.8,1.2,2.4c0.8,0.6,1.7,0.9,2.8,0.9c1.3,0,2.3-0.3,3-0.8c0.3-0.2,0.5-0.3,0.6-0.4
					c0.2-0.1,0.4-0.1,0.7-0.1h2.8c0.3,0,0.5,0.1,0.7,0.3c0.2,0.2,0.3,0.4,0.3,0.6c0,0.5-0.3,1.1-1,1.9c-0.6,0.7-1.6,1.4-2.8,1.9
					c-1.2,0.5-2.6,0.8-4.3,0.8c-1.7,0-3.2-0.4-4.5-1.2c-1.3-0.8-2.3-1.9-3-3.3c-0.7-1.4-1.1-3.1-1.1-4.9c0-1.8,0.4-3.3,1.1-4.8
					c0.7-1.4,1.7-2.6,3-3.4c1.3-0.8,2.8-1.3,4.5-1.3C58.2,121.5,59.7,121.9,61,122.7z M60.4,129c-0.3-2.1-1.6-3.2-3.9-3.2
					c-1.2,0-2.2,0.3-2.9,1c-0.7,0.7-1.1,1.4-1.2,2.2H60.4z"/>
				<path id="XMLID_89_" class="st1" d="M27.5,150.4c-0.2-0.2-0.3-0.4-0.3-0.7v-2.6c0-0.3,0.1-0.5,0.3-0.7c0.2-0.2,0.4-0.3,0.7-0.3
					h36.5c0.3,0,0.5,0.1,0.7,0.3c0.2,0.2,0.3,0.4,0.3,0.7v2.6c0,0.3-0.1,0.5-0.3,0.7c-0.2,0.2-0.4,0.3-0.7,0.3H28.1
					C27.9,150.6,27.7,150.5,27.5,150.4z"/>
			</g>
		</g>
	</g>
	<g id="XMLID_65_">
		<g id="XMLID_79_">
			<g id="XMLID_84_">
				<path id="XMLID_85_" class="st1" d="M152.1,56.1c-1,0-1.9-0.7-2.1-1.7c-0.3-1.2,0.5-2.3,1.6-2.6l5.6-1.3
					c1.2-0.3,2.3,0.5,2.6,1.6c0.3,1.2-0.5,2.3-1.6,2.6l-5.6,1.3C152.4,56.1,152.2,56.1,152.1,56.1z"/>
			</g>
			<g id="XMLID_82_">
				<path id="XMLID_83_" class="st1" d="M171.1,36.3c-1,0-1.9-0.7-2.1-1.8l-1.1-5.5c-0.2-1.2,0.5-2.3,1.7-2.6
					c1.2-0.2,2.3,0.5,2.6,1.7l1.1,5.5c0.2,1.2-0.5,2.3-1.7,2.6C171.4,36.2,171.3,36.3,171.1,36.3z"/>
			</g>
			<g id="XMLID_80_">
				<path id="XMLID_81_" class="st1" d="M161.2,43.6c-0.4,0-0.8-0.1-1.2-0.3l-10.2-6.4c-1-0.6-1.3-2-0.7-3c0.6-1,2-1.3,3-0.7
					l10.2,6.4c1,0.6,1.3,2,0.7,3C162.6,43.3,161.9,43.6,161.2,43.6z"/>
			</g>
		</g>
		<g id="XMLID_77_">
			<path id="XMLID_78_" class="st1" d="M186.2,104.2c-0.8,0-1.6-0.1-2.4-0.4c-12.5-4.9-21-17.7-21-31.9c0-13.3,0.9-24.7,12.2-30.4
				c3.2-1.6,8.8-0.8,14.2-0.1c2.3,0.3,4.4,0.6,5.8,0.6c1.4,0,3.5-0.2,5.8-0.5c5.9-0.6,12.6-1.3,16,0.6c10.4,5.7,10.4,16.7,10.4,28.4
				l0,1.3c0,0.8,0,1.7-0.1,2.5c-0.1,1.2-1.1,2.1-2.3,2c-1.2-0.1-2.1-1.1-2-2.3c0-0.7,0.1-1.5,0.1-2.2l0-1.3c0-11.2,0-20.1-8.1-24.6
				c-2.3-1.3-9-0.6-13.5-0.1c-2.5,0.3-4.6,0.5-6.2,0.5c-1.7,0-4-0.3-6.4-0.6c-4.1-0.5-9.7-1.3-11.7-0.3c-9,4.5-9.8,14.2-9.8,26.5
				c0,12.4,7.3,23.5,18.2,27.8c1.1,0.4,2.9-0.3,4.7-0.9c1.8-0.7,3.7-1.4,5.6-1.4c0.5,0,1,0,1.5,0c2.1-0.1,4,0.3,5.6,0.7
				c2.3,0.6,3.7,0.9,5.1,0.1c4-2.2,7.5-5.5,10.1-9.5c0.7-1,2-1.3,3-0.7c1,0.7,1.3,2,0.7,3c-3,4.6-7,8.4-11.6,11
				c-3,1.7-5.8,1-8.2,0.4c-1.5-0.4-2.9-0.7-4.3-0.6c-0.6,0-1.1,0-1.7,0c-1.2,0-2.7,0.6-4.1,1.1C189.9,103.5,188,104.2,186.2,104.2z"
				/>
		</g>
		<g id="XMLID_75_">
			<path id="XMLID_76_" class="st1" d="M195.4,39.6c-0.7,0-1.5-0.4-1.9-1.1l-7-11.7c-0.6-1-0.3-2.4,0.8-3c1-0.6,2.4-0.3,3,0.8
				l7,11.7c0.6,1,0.3,2.4-0.8,3C196.1,39.5,195.7,39.6,195.4,39.6z"/>
		</g>
		<g id="XMLID_71_">
			<path id="XMLID_72_" class="st1" d="M195.6,39.6c-0.9,0-1.8-0.6-2.1-1.5c-0.1-0.3-2.3-6.9,1.2-13.1c2.5-4.3,7.1-7.2,13.6-8.6
				c1.1-0.2,2.2,0.5,2.5,1.6c0.1,0.3,2,7.7-2,13.9c-2.6,4-6.9,6.6-13,7.6C195.8,39.6,195.7,39.6,195.6,39.6z M207,21.3
				c-4.1,1.2-6.9,3.2-8.5,5.9c-1.6,2.8-1.5,5.7-1.3,7.6c3.7-1,6.4-2.7,8-5.2C207.1,26.7,207.2,23.4,207,21.3z"/>
		</g>
		<g id="XMLID_69_">
			<path id="XMLID_70_" class="st1" d="M225.2,83.4c0,1.2-1,2.2-2.2,2.2c-1.2,0-2.2-1-2.2-2.2s1-2.2,2.2-2.2
				C224.2,81.2,225.2,82.2,225.2,83.4z"/>
		</g>
		<g id="XMLID_66_">
			<path id="XMLID_67_" class="st1" d="M185.7,70.4c-1.2-1.4-1.8-3.3-1.8-5.6c0-1.5,0.5-2.9,1.4-4.2c0.9-1.3,2.2-2.4,3.9-3.3
				c1.7-0.8,3.7-1.2,5.9-1.2c2.2,0,4.2,0.3,5.9,1c1.7,0.6,3.1,1.5,4,2.6c1,1.1,1.5,2.2,1.5,3.4c0,0.4-0.1,0.7-0.4,1
				c-0.3,0.3-0.7,0.4-1.1,0.4h-4.2c-0.4,0-0.8-0.1-1-0.2c-0.3-0.1-0.5-0.3-0.8-0.6c-0.4-0.4-0.9-0.7-1.5-0.9
				c-0.6-0.2-1.4-0.3-2.5-0.3c-1.2,0-2.2,0.2-3,0.5c-0.8,0.4-1.2,0.9-1.2,1.7c0,0.5,0.2,1,0.6,1.3c0.4,0.3,1,0.6,2,0.8
				c0.9,0.2,2.6,0.6,5.1,1.2c3.1,0.6,5.3,1.7,6.7,3.1c1.4,1.4,2.1,3.3,2.1,5.5c0,1.5-0.5,2.9-1.5,4.2c-1,1.3-2.4,2.4-4.2,3.2
				c-1.8,0.8-3.9,1.2-6.4,1.2c-2.4,0-4.5-0.4-6.3-1.1c-1.8-0.7-3.2-1.7-4.1-2.8c-1-1.2-1.5-2.3-1.5-3.6c0-0.4,0.1-0.7,0.4-1
				c0.3-0.3,0.7-0.4,1.1-0.4h4.2c0.4,0,0.7,0.1,1,0.2c0.3,0.1,0.5,0.4,0.8,0.7c0.5,0.5,1.1,0.9,1.7,1.2c0.6,0.3,1.6,0.4,2.9,0.4
				c1.3,0,2.5-0.2,3.5-0.5c1-0.3,1.5-0.9,1.5-1.6c0-0.5-0.2-0.8-0.5-1.1c-0.4-0.3-0.9-0.5-1.7-0.7c-0.8-0.2-2.1-0.5-3.9-0.9
				l-2.1-0.4C189,72.9,186.9,71.8,185.7,70.4z"/>
		</g>
	</g>
</g>
</svg>
